<mxfile host="65bd71144e">
    <diagram id="VHOrxlb94Ud6rleqzrR8" name="第1頁">
        <mxGraphModel dx="816" dy="563" grid="1" gridSize="10" guides="1" tooltips="1" connect="1" arrows="1" fold="1" page="1" pageScale="1" pageWidth="827" pageHeight="1169" math="0" shadow="0">
            <root>
                <mxCell id="0"/>
                <mxCell id="1" parent="0"/>
                <mxCell id="3" value="" style="rounded=0;whiteSpace=wrap;html=1;gradientColor=#7ea6e0;fillColor=#dae8fc;strokeColor=#6c8ebf;gradientDirection=west;" vertex="1" parent="1">
                    <mxGeometry x="284" y="70" width="110" height="50" as="geometry"/>
                </mxCell>
                <mxCell id="4" value="&lt;font style=&quot;font-size: 20px;&quot;&gt;需求&lt;/font&gt;" style="text;strokeColor=none;align=center;fillColor=none;html=1;verticalAlign=middle;whiteSpace=wrap;rounded=0;fontColor=#1c1212;fontStyle=1" vertex="1" parent="1">
                    <mxGeometry x="309" y="80" width="60" height="30" as="geometry"/>
                </mxCell>
                <mxCell id="5" value="" style="rounded=0;whiteSpace=wrap;html=1;fillColor=#dae8fc;strokeColor=#6c8ebf;gradientDirection=west;gradientColor=#7ea6e0;" vertex="1" parent="1">
                    <mxGeometry x="339" y="160" width="110" height="50" as="geometry"/>
                </mxCell>
                <mxCell id="6" value="&lt;font style=&quot;font-size: 20px;&quot;&gt;分析&lt;/font&gt;" style="text;strokeColor=none;align=center;fillColor=none;html=1;verticalAlign=middle;whiteSpace=wrap;rounded=0;fontColor=#302c2c;fontStyle=1" vertex="1" parent="1">
                    <mxGeometry x="364" y="170" width="60" height="30" as="geometry"/>
                </mxCell>
                <mxCell id="7" value="" style="rounded=0;whiteSpace=wrap;html=1;fillColor=#dae8fc;gradientColor=#7ea6e0;strokeColor=#6c8ebf;gradientDirection=west;" vertex="1" parent="1">
                    <mxGeometry x="398" y="250" width="110" height="50" as="geometry"/>
                </mxCell>
                <mxCell id="8" value="&lt;font style=&quot;font-size: 20px;&quot;&gt;設計&lt;/font&gt;" style="text;strokeColor=none;align=center;fillColor=none;html=1;verticalAlign=middle;whiteSpace=wrap;rounded=0;fontColor=#100f0f;fontStyle=1" vertex="1" parent="1">
                    <mxGeometry x="423" y="260" width="60" height="30" as="geometry"/>
                </mxCell>
                <mxCell id="9" value="" style="rounded=0;whiteSpace=wrap;html=1;fillColor=#dae8fc;gradientColor=#7ea6e0;strokeColor=#6c8ebf;gradientDirection=west;" vertex="1" parent="1">
                    <mxGeometry x="456" y="339" width="110" height="50" as="geometry"/>
                </mxCell>
                <mxCell id="10" value="&lt;font style=&quot;font-size: 20px;&quot;&gt;製作&lt;/font&gt;" style="text;strokeColor=none;align=center;fillColor=none;html=1;verticalAlign=middle;whiteSpace=wrap;rounded=0;fontColor=#121212;fontStyle=1" vertex="1" parent="1">
                    <mxGeometry x="481" y="349" width="60" height="30" as="geometry"/>
                </mxCell>
                <mxCell id="11" value="" style="rounded=0;whiteSpace=wrap;html=1;fillColor=#dae8fc;gradientColor=#7ea6e0;strokeColor=#6c8ebf;gradientDirection=west;" vertex="1" parent="1">
                    <mxGeometry x="517" y="429" width="110" height="50" as="geometry"/>
                </mxCell>
                <mxCell id="12" value="&lt;font style=&quot;font-size: 20px;&quot;&gt;維護&lt;/font&gt;" style="text;strokeColor=none;align=center;fillColor=none;html=1;verticalAlign=middle;whiteSpace=wrap;rounded=0;fontColor=#1d1b1b;fontStyle=1" vertex="1" parent="1">
                    <mxGeometry x="542" y="439" width="60" height="30" as="geometry"/>
                </mxCell>
                <mxCell id="58" value="" style="group" vertex="1" connectable="0" parent="1">
                    <mxGeometry x="120" y="117.5" width="70" height="142.5" as="geometry"/>
                </mxCell>
                <mxCell id="55" value="發&lt;br/&gt;展&lt;br/&gt;工&lt;br/&gt;作&lt;br/&gt;的&lt;br/&gt;次&lt;br/&gt;序" style="text;strokeColor=none;align=center;fillColor=none;html=1;verticalAlign=middle;whiteSpace=wrap;rounded=0;fontSize=20;" vertex="1" parent="58">
                    <mxGeometry y="12.5" width="70" height="130" as="geometry"/>
                </mxCell>
                <mxCell id="56" value="由&lt;br style=&quot;font-size: 17px;&quot;&gt;上&lt;br style=&quot;font-size: 17px;&quot;&gt;至&lt;br style=&quot;font-size: 17px;&quot;&gt;下" style="text;strokeColor=none;align=center;fillColor=none;html=1;verticalAlign=middle;whiteSpace=wrap;rounded=0;fontSize=17;" vertex="1" parent="58">
                    <mxGeometry x="7" width="10" height="73" as="geometry"/>
                </mxCell>
                <mxCell id="59" value="" style="rounded=0;whiteSpace=wrap;html=1;fontSize=17;fillColor=#647687;gradientDirection=west;strokeColor=#314354;fontColor=#ffffff;" vertex="1" parent="1">
                    <mxGeometry x="110" y="419" width="130" height="60" as="geometry"/>
                </mxCell>
                <mxCell id="68" value="&lt;font style=&quot;font-size: 18px;&quot;&gt;維護&lt;/font&gt;" style="text;strokeColor=none;align=center;fillColor=none;html=1;verticalAlign=middle;whiteSpace=wrap;rounded=0;fontColor=#201818;fontStyle=1" vertex="1" parent="1">
                    <mxGeometry x="186" y="456" width="44" height="16" as="geometry"/>
                </mxCell>
                <mxCell id="69" value="&lt;font style=&quot;font-size: 18px;&quot;&gt;發展&lt;/font&gt;" style="text;align=center;html=1;verticalAlign=middle;whiteSpace=wrap;rounded=0;fontColor=#131010;fontStyle=1" vertex="1" parent="1">
                    <mxGeometry x="186" y="429" width="44" height="16" as="geometry"/>
                </mxCell>
                <mxCell id="82" value="" style="group" vertex="1" connectable="0" parent="1">
                    <mxGeometry x="470" y="396" height="64" as="geometry"/>
                </mxCell>
                <mxCell id="79" value="" style="endArrow=none;dashed=1;html=1;labelBackgroundColor=#151a1e;labelBorderColor=#5B97F0;strokeColor=#3d5d8a;strokeWidth=3;fontFamily=Helvetica;fontSize=12;fontColor=default;edgeStyle=orthogonalEdgeStyle;" edge="1" parent="82">
                    <mxGeometry width="50" height="50" relative="1" as="geometry">
                        <mxPoint x="47" y="64" as="sourcePoint"/>
                        <mxPoint y="14" as="targetPoint"/>
                        <Array as="points">
                            <mxPoint y="64"/>
                            <mxPoint y="14"/>
                        </Array>
                    </mxGeometry>
                </mxCell>
                <mxCell id="81" value="" style="endArrow=classic;html=1;labelBackgroundColor=#151a1e;labelBorderColor=#5B97F0;strokeColor=#3d5d8a;strokeWidth=3;fontFamily=Helvetica;fontSize=12;fontColor=default;" edge="1" parent="82">
                    <mxGeometry width="50" height="50" relative="1" as="geometry">
                        <mxPoint y="16" as="sourcePoint"/>
                        <mxPoint as="targetPoint"/>
                    </mxGeometry>
                </mxCell>
                <mxCell id="87" value="" style="group" vertex="1" connectable="0" parent="1">
                    <mxGeometry x="350" y="215" height="64" as="geometry"/>
                </mxCell>
                <mxCell id="88" value="" style="endArrow=none;dashed=1;html=1;labelBackgroundColor=#151a1e;labelBorderColor=#5B97F0;strokeColor=#3d5d8a;strokeWidth=3;fontFamily=Helvetica;fontSize=12;fontColor=default;edgeStyle=orthogonalEdgeStyle;" edge="1" parent="87">
                    <mxGeometry width="50" height="50" relative="1" as="geometry">
                        <mxPoint x="47" y="64" as="sourcePoint"/>
                        <mxPoint y="14" as="targetPoint"/>
                        <Array as="points">
                            <mxPoint y="64"/>
                            <mxPoint y="14"/>
                        </Array>
                    </mxGeometry>
                </mxCell>
                <mxCell id="89" value="" style="endArrow=classic;html=1;labelBackgroundColor=#151a1e;labelBorderColor=#5B97F0;strokeColor=#3d5d8a;strokeWidth=3;fontFamily=Helvetica;fontSize=12;fontColor=default;" edge="1" parent="87">
                    <mxGeometry width="50" height="50" relative="1" as="geometry">
                        <mxPoint y="16" as="sourcePoint"/>
                        <mxPoint as="targetPoint"/>
                    </mxGeometry>
                </mxCell>
                <mxCell id="90" value="" style="group" vertex="1" connectable="0" parent="1">
                    <mxGeometry x="292" y="122" height="64" as="geometry"/>
                </mxCell>
                <mxCell id="91" value="" style="endArrow=none;dashed=1;html=1;labelBackgroundColor=#151a1e;labelBorderColor=#5B97F0;strokeColor=#3d5d8a;strokeWidth=3;fontFamily=Helvetica;fontSize=12;fontColor=default;edgeStyle=orthogonalEdgeStyle;" edge="1" parent="90">
                    <mxGeometry width="50" height="50" relative="1" as="geometry">
                        <mxPoint x="47" y="64" as="sourcePoint"/>
                        <mxPoint y="14" as="targetPoint"/>
                        <Array as="points">
                            <mxPoint y="64"/>
                            <mxPoint y="14"/>
                        </Array>
                    </mxGeometry>
                </mxCell>
                <mxCell id="92" value="" style="endArrow=classic;html=1;labelBackgroundColor=#151a1e;labelBorderColor=#5B97F0;strokeColor=#3d5d8a;strokeWidth=3;fontFamily=Helvetica;fontSize=12;fontColor=default;" edge="1" parent="90">
                    <mxGeometry width="50" height="50" relative="1" as="geometry">
                        <mxPoint y="16" as="sourcePoint"/>
                        <mxPoint as="targetPoint"/>
                    </mxGeometry>
                </mxCell>
                <mxCell id="83" value="" style="group" vertex="1" connectable="0" parent="1">
                    <mxGeometry x="408" y="302" height="64" as="geometry"/>
                </mxCell>
                <mxCell id="84" value="" style="endArrow=none;dashed=1;html=1;labelBackgroundColor=#151a1e;labelBorderColor=#5B97F0;strokeColor=#3d5d8a;strokeWidth=3;fontFamily=Helvetica;fontSize=12;fontColor=default;edgeStyle=orthogonalEdgeStyle;" edge="1" parent="83">
                    <mxGeometry width="50" height="50" relative="1" as="geometry">
                        <mxPoint x="47" y="64" as="sourcePoint"/>
                        <mxPoint y="14" as="targetPoint"/>
                        <Array as="points">
                            <mxPoint y="64"/>
                            <mxPoint y="14"/>
                        </Array>
                    </mxGeometry>
                </mxCell>
                <mxCell id="85" value="" style="endArrow=classic;html=1;labelBackgroundColor=#151a1e;labelBorderColor=#5B97F0;strokeColor=#3d5d8a;strokeWidth=3;fontFamily=Helvetica;fontSize=12;fontColor=default;" edge="1" parent="83">
                    <mxGeometry width="50" height="50" relative="1" as="geometry">
                        <mxPoint y="16" as="sourcePoint"/>
                        <mxPoint as="targetPoint"/>
                    </mxGeometry>
                </mxCell>
                <mxCell id="98" value="" style="endArrow=none;dashed=1;html=1;labelBackgroundColor=#151a1e;labelBorderColor=#5B97F0;strokeColor=#3d5d8a;strokeWidth=3;fontFamily=Helvetica;fontSize=12;fontColor=default;edgeStyle=orthogonalEdgeStyle;" edge="1" parent="1">
                    <mxGeometry width="50" height="50" relative="1" as="geometry">
                        <mxPoint x="595" y="429" as="sourcePoint"/>
                        <mxPoint x="469" y="190" as="targetPoint"/>
                        <Array as="points">
                            <mxPoint x="595" y="190"/>
                        </Array>
                    </mxGeometry>
                </mxCell>
                <mxCell id="94" value="" style="endArrow=none;dashed=1;html=1;labelBackgroundColor=#151a1e;labelBorderColor=#5B97F0;strokeColor=#3d5d8a;strokeWidth=3;fontFamily=Helvetica;fontSize=12;fontColor=default;edgeStyle=orthogonalEdgeStyle;" edge="1" parent="1">
                    <mxGeometry width="50" height="50" relative="1" as="geometry">
                        <mxPoint x="613" y="428" as="sourcePoint"/>
                        <mxPoint x="413" y="98" as="targetPoint"/>
                        <Array as="points">
                            <mxPoint x="613" y="98"/>
                        </Array>
                    </mxGeometry>
                </mxCell>
                <mxCell id="95" value="" style="endArrow=classic;html=1;labelBackgroundColor=#151a1e;labelBorderColor=#5B97F0;strokeColor=#3d5d8a;strokeWidth=3;fontFamily=Helvetica;fontSize=12;fontColor=default;" edge="1" parent="1">
                    <mxGeometry width="50" height="50" relative="1" as="geometry">
                        <mxPoint x="414" y="98" as="sourcePoint"/>
                        <mxPoint x="399" y="98" as="targetPoint"/>
                    </mxGeometry>
                </mxCell>
                <mxCell id="99" value="" style="endArrow=classic;html=1;labelBackgroundColor=#151a1e;labelBorderColor=#5B97F0;strokeColor=#3d5d8a;strokeWidth=3;fontFamily=Helvetica;fontSize=12;fontColor=default;" edge="1" parent="1">
                    <mxGeometry width="50" height="50" relative="1" as="geometry">
                        <mxPoint x="472" y="190" as="sourcePoint"/>
                        <mxPoint x="454" y="190" as="targetPoint"/>
                    </mxGeometry>
                </mxCell>
                <mxCell id="100" value="" style="endArrow=none;dashed=1;html=1;labelBackgroundColor=#151a1e;labelBorderColor=#5B97F0;strokeColor=#3d5d8a;strokeWidth=3;fontFamily=Helvetica;fontSize=12;fontColor=default;edgeStyle=orthogonalEdgeStyle;exitX=0.58;exitY=-0.08;exitDx=0;exitDy=0;exitPerimeter=0;" edge="1" parent="1">
                    <mxGeometry width="50" height="50" relative="1" as="geometry">
                        <mxPoint x="578.8" y="429" as="sourcePoint"/>
                        <mxPoint x="518" y="270" as="targetPoint"/>
                        <Array as="points">
                            <mxPoint x="579" y="270"/>
                            <mxPoint x="518" y="270"/>
                        </Array>
                    </mxGeometry>
                </mxCell>
                <mxCell id="101" value="" style="endArrow=classic;html=1;labelBackgroundColor=#151a1e;labelBorderColor=#5B97F0;strokeColor=#3d5d8a;strokeWidth=3;fontFamily=Helvetica;fontSize=12;fontColor=default;" edge="1" parent="1">
                    <mxGeometry width="50" height="50" relative="1" as="geometry">
                        <mxPoint x="536" y="270" as="sourcePoint"/>
                        <mxPoint x="518" y="270" as="targetPoint"/>
                    </mxGeometry>
                </mxCell>
                <mxCell id="105" value="" style="group" vertex="1" connectable="0" parent="1">
                    <mxGeometry x="146" y="463" width="36" as="geometry"/>
                </mxCell>
                <mxCell id="103" value="" style="endArrow=none;dashed=1;html=1;labelBackgroundColor=#151a1e;labelBorderColor=#5B97F0;strokeColor=#3d5d8a;strokeWidth=3;fontFamily=Helvetica;fontSize=12;fontColor=default;edgeStyle=orthogonalEdgeStyle;" edge="1" parent="105">
                    <mxGeometry width="50" height="50" relative="1" as="geometry">
                        <mxPoint x="-20" as="sourcePoint"/>
                        <mxPoint x="30" as="targetPoint"/>
                        <Array as="points">
                            <mxPoint/>
                            <mxPoint/>
                        </Array>
                    </mxGeometry>
                </mxCell>
                <mxCell id="104" value="" style="endArrow=classic;html=1;labelBackgroundColor=#151a1e;labelBorderColor=#5B97F0;strokeColor=#3d5d8a;strokeWidth=3;fontFamily=Helvetica;fontSize=12;fontColor=default;" edge="1" parent="105">
                    <mxGeometry width="50" height="50" relative="1" as="geometry">
                        <mxPoint x="16" as="sourcePoint"/>
                        <mxPoint x="36" as="targetPoint"/>
                    </mxGeometry>
                </mxCell>
                <mxCell id="109" value="" style="endArrow=classic;html=1;labelBackgroundColor=#151a1e;labelBorderColor=#5B97F0;strokeColor=#3d5d8a;strokeWidth=3;fontFamily=Helvetica;fontSize=12;fontColor=default;" edge="1" parent="1">
                    <mxGeometry width="50" height="50" relative="1" as="geometry">
                        <mxPoint x="369" y="126" as="sourcePoint"/>
                        <mxPoint x="369" y="157" as="targetPoint"/>
                    </mxGeometry>
                </mxCell>
                <mxCell id="111" value="" style="endArrow=classic;html=1;labelBackgroundColor=#151a1e;labelBorderColor=#5B97F0;strokeColor=#3d5d8a;strokeWidth=3;fontFamily=Helvetica;fontSize=12;fontColor=default;" edge="1" parent="1">
                    <mxGeometry width="50" height="50" relative="1" as="geometry">
                        <mxPoint x="430" y="215" as="sourcePoint"/>
                        <mxPoint x="430" y="246" as="targetPoint"/>
                    </mxGeometry>
                </mxCell>
                <mxCell id="112" value="" style="endArrow=classic;html=1;labelBackgroundColor=#151a1e;labelBorderColor=#5B97F0;strokeColor=#3d5d8a;strokeWidth=3;fontFamily=Helvetica;fontSize=12;fontColor=default;" edge="1" parent="1">
                    <mxGeometry width="50" height="50" relative="1" as="geometry">
                        <mxPoint x="490" y="304" as="sourcePoint"/>
                        <mxPoint x="490" y="335" as="targetPoint"/>
                    </mxGeometry>
                </mxCell>
                <mxCell id="113" value="" style="endArrow=classic;html=1;labelBackgroundColor=#151a1e;labelBorderColor=#5B97F0;strokeColor=#3d5d8a;strokeWidth=3;fontFamily=Helvetica;fontSize=12;fontColor=default;" edge="1" parent="1">
                    <mxGeometry width="50" height="50" relative="1" as="geometry">
                        <mxPoint x="546" y="394" as="sourcePoint"/>
                        <mxPoint x="546" y="425" as="targetPoint"/>
                    </mxGeometry>
                </mxCell>
                <mxCell id="115" value="" style="endArrow=classic;html=1;labelBackgroundColor=#151a1e;labelBorderColor=#5B97F0;strokeColor=#3d5d8a;strokeWidth=3;fontFamily=Helvetica;fontSize=12;fontColor=default;" edge="1" parent="1">
                    <mxGeometry width="50" height="50" relative="1" as="geometry">
                        <mxPoint x="124" y="437" as="sourcePoint"/>
                        <mxPoint x="183" y="436.5" as="targetPoint"/>
                    </mxGeometry>
                </mxCell>
            </root>
        </mxGraphModel>
    </diagram>
</mxfile>